<mxfile host="65bd71144e">
    <diagram id="F0W2uZ62XZT9mW7RIrrh" name="Page-1">
        <mxGraphModel dx="1066" dy="638" grid="1" gridSize="10" guides="1" tooltips="1" connect="1" arrows="1" fold="1" page="1" pageScale="1" pageWidth="850" pageHeight="1100" math="0" shadow="0">
            <root>
                <mxCell id="0"/>
                <mxCell id="1" parent="0"/>
                <mxCell id="7" style="edgeStyle=none;html=1;endArrow=open;endFill=0;" parent="1" source="25" target="105" edge="1">
                    <mxGeometry relative="1" as="geometry">
                        <mxPoint x="380" y="589" as="targetPoint"/>
                    </mxGeometry>
                </mxCell>
                <mxCell id="26" style="edgeStyle=none;html=1;" parent="1" source="8" target="79" edge="1">
                    <mxGeometry relative="1" as="geometry">
                        <mxPoint x="360" y="239" as="targetPoint"/>
                    </mxGeometry>
                </mxCell>
                <mxCell id="8" value="Create new function/method" style="rounded=1;whiteSpace=wrap;html=1;" parent="1" vertex="1">
                    <mxGeometry x="280" y="140" width="160" height="40" as="geometry"/>
                </mxCell>
                <mxCell id="16" value="" style="edgeStyle=elbowEdgeStyle;html=1;endArrow=open;endFill=0;" parent="1" source="9" target="14" edge="1">
                    <mxGeometry relative="1" as="geometry"/>
                </mxCell>
                <mxCell id="90" style="edgeStyle=elbowEdgeStyle;html=1;" edge="1" parent="1" source="9" target="60">
                    <mxGeometry relative="1" as="geometry">
                        <Array as="points">
                            <mxPoint x="190" y="680"/>
                        </Array>
                    </mxGeometry>
                </mxCell>
                <mxCell id="9" value="" style="rhombus;whiteSpace=wrap;html=1;" parent="1" vertex="1">
                    <mxGeometry x="350" y="799" width="20" height="40" as="geometry"/>
                </mxCell>
                <mxCell id="21" style="edgeStyle=elbowEdgeStyle;html=1;endArrow=open;endFill=0;" parent="1" source="14" target="35" edge="1">
                    <mxGeometry relative="1" as="geometry"/>
                </mxCell>
                <mxCell id="14" value="server unit tests" style="rounded=1;whiteSpace=wrap;html=1;" parent="1" vertex="1">
                    <mxGeometry x="280" y="879" width="160" height="40" as="geometry"/>
                </mxCell>
                <mxCell id="33" style="edgeStyle=none;html=1;" parent="1" source="20" target="30" edge="1">
                    <mxGeometry relative="1" as="geometry">
                        <mxPoint x="360" y="1158" as="sourcePoint"/>
                    </mxGeometry>
                </mxCell>
                <mxCell id="20" value="Add feature to main code" style="rounded=1;whiteSpace=wrap;html=1;" parent="1" vertex="1">
                    <mxGeometry x="280" y="1099" width="160" height="40" as="geometry"/>
                </mxCell>
                <mxCell id="25" value="Write tests to feature" style="rounded=1;whiteSpace=wrap;html=1;" parent="1" vertex="1">
                    <mxGeometry x="280" y="499" width="160" height="40" as="geometry"/>
                </mxCell>
                <mxCell id="47" style="edgeStyle=orthogonalEdgeStyle;html=1;" parent="1" source="30" target="46" edge="1">
                    <mxGeometry relative="1" as="geometry"/>
                </mxCell>
                <mxCell id="30" value="Call add_feature_script" style="rounded=1;whiteSpace=wrap;html=1;" parent="1" vertex="1">
                    <mxGeometry x="280" y="1208" width="160" height="40" as="geometry"/>
                </mxCell>
                <mxCell id="41" style="edgeStyle=orthogonalEdgeStyle;html=1;" parent="1" source="34" target="39" edge="1">
                    <mxGeometry relative="1" as="geometry"/>
                </mxCell>
                <mxCell id="34" value="server unit tests" style="rounded=1;whiteSpace=wrap;html=1;" parent="1" vertex="1">
                    <mxGeometry x="280" y="1398" width="160" height="40" as="geometry"/>
                </mxCell>
                <mxCell id="36" style="edgeStyle=none;html=1;" parent="1" source="35" target="64" edge="1">
                    <mxGeometry relative="1" as="geometry">
                        <mxPoint x="280" y="999" as="targetPoint"/>
                    </mxGeometry>
                </mxCell>
                <mxCell id="35" value="" style="rhombus;whiteSpace=wrap;html=1;" parent="1" vertex="1">
                    <mxGeometry x="350" y="939" width="20" height="40" as="geometry"/>
                </mxCell>
                <mxCell id="44" style="edgeStyle=orthogonalEdgeStyle;html=1;" parent="1" source="39" target="43" edge="1">
                    <mxGeometry relative="1" as="geometry"/>
                </mxCell>
                <mxCell id="39" value="" style="rhombus;whiteSpace=wrap;html=1;" parent="1" vertex="1">
                    <mxGeometry x="350" y="1468" width="20" height="40" as="geometry"/>
                </mxCell>
                <mxCell id="77" style="edgeStyle=elbowEdgeStyle;html=1;" edge="1" parent="1" source="43" target="76">
                    <mxGeometry relative="1" as="geometry"/>
                </mxCell>
                <mxCell id="43" value="Call upload script" style="rounded=1;whiteSpace=wrap;html=1;" parent="1" vertex="1">
                    <mxGeometry x="280" y="1578" width="160" height="40" as="geometry"/>
                </mxCell>
                <mxCell id="48" style="edgeStyle=elbowEdgeStyle;html=1;" parent="1" source="46" target="11" edge="1">
                    <mxGeometry relative="1" as="geometry">
                        <mxPoint x="110" y="639" as="targetPoint"/>
                        <Array as="points">
                            <mxPoint x="120" y="929"/>
                        </Array>
                    </mxGeometry>
                </mxCell>
                <mxCell id="66" style="edgeStyle=elbowEdgeStyle;html=1;" edge="1" parent="1" source="46" target="64">
                    <mxGeometry relative="1" as="geometry">
                        <Array as="points">
                            <mxPoint x="520" y="1189"/>
                        </Array>
                    </mxGeometry>
                </mxCell>
                <mxCell id="68" style="edgeStyle=elbowEdgeStyle;html=1;" edge="1" parent="1" source="46" target="34">
                    <mxGeometry relative="1" as="geometry"/>
                </mxCell>
                <mxCell id="46" value="" style="rhombus;whiteSpace=wrap;html=1;" parent="1" vertex="1">
                    <mxGeometry x="350" y="1288" width="20" height="40" as="geometry"/>
                </mxCell>
                <mxCell id="56" value="[not tested]" style="text;strokeColor=none;align=center;fillColor=none;html=1;verticalAlign=middle;whiteSpace=wrap;rounded=0;" vertex="1" parent="1">
                    <mxGeometry x="260" y="1268" width="80" height="30" as="geometry"/>
                </mxCell>
                <mxCell id="59" style="edgeStyle=none;html=1;" edge="1" parent="1" source="57" target="60">
                    <mxGeometry relative="1" as="geometry">
                        <mxPoint x="480" y="349" as="targetPoint"/>
                    </mxGeometry>
                </mxCell>
                <mxCell id="57" value="Call create_test_file script" style="rounded=1;whiteSpace=wrap;html=1;" vertex="1" parent="1">
                    <mxGeometry x="280" y="280" width="160" height="40" as="geometry"/>
                </mxCell>
                <mxCell id="103" style="edgeStyle=elbowEdgeStyle;html=1;" edge="1" parent="1" source="60" target="25">
                    <mxGeometry relative="1" as="geometry"/>
                </mxCell>
                <mxCell id="60" value="Generate test file" style="rounded=1;whiteSpace=wrap;html=1;" vertex="1" parent="1">
                    <mxGeometry x="280" y="359" width="160" height="40" as="geometry"/>
                </mxCell>
                <mxCell id="63" value="" style="group" vertex="1" connectable="0" parent="1">
                    <mxGeometry x="380" y="929" width="90" height="30" as="geometry"/>
                </mxCell>
                <mxCell id="62" value="[tests failed]" style="text;html=1;strokeColor=none;fillColor=none;align=center;verticalAlign=middle;whiteSpace=wrap;rounded=0;" vertex="1" parent="63">
                    <mxGeometry width="90" height="30" as="geometry"/>
                </mxCell>
                <mxCell id="65" style="edgeStyle=none;html=1;" edge="1" parent="1" source="64" target="20">
                    <mxGeometry relative="1" as="geometry"/>
                </mxCell>
                <mxCell id="64" value="Write&amp;nbsp; dox documentation" style="rounded=1;whiteSpace=wrap;html=1;" vertex="1" parent="1">
                    <mxGeometry x="280" y="999" width="160" height="40" as="geometry"/>
                </mxCell>
                <mxCell id="67" value="[no documentation]" style="text;strokeColor=none;align=center;fillColor=none;html=1;verticalAlign=middle;whiteSpace=wrap;rounded=0;" vertex="1" parent="1">
                    <mxGeometry x="385" y="1268" width="80" height="30" as="geometry"/>
                </mxCell>
                <mxCell id="73" value="" style="group" vertex="1" connectable="0" parent="1">
                    <mxGeometry x="400" y="1438" width="90" height="41" as="geometry"/>
                </mxCell>
                <mxCell id="69" value="" style="group" vertex="1" connectable="0" parent="73">
                    <mxGeometry width="90" height="41" as="geometry"/>
                </mxCell>
                <mxCell id="70" style="edgeStyle=orthogonalEdgeStyle;html=1;" edge="1" parent="69">
                    <mxGeometry relative="1" as="geometry"/>
                </mxCell>
                <mxCell id="71" value="[tests failed]" style="text;html=1;strokeColor=none;fillColor=none;align=center;verticalAlign=middle;whiteSpace=wrap;rounded=0;" vertex="1" parent="69">
                    <mxGeometry y="11" width="90" height="30" as="geometry"/>
                </mxCell>
                <mxCell id="75" style="edgeStyle=elbowEdgeStyle;html=1;" edge="1" parent="1" source="74" target="8">
                    <mxGeometry relative="1" as="geometry"/>
                </mxCell>
                <mxCell id="74" value="Check issues" style="rounded=1;whiteSpace=wrap;html=1;" vertex="1" parent="1">
                    <mxGeometry x="280" y="60" width="160" height="40" as="geometry"/>
                </mxCell>
                <mxCell id="85" style="edgeStyle=elbowEdgeStyle;html=1;" edge="1" parent="1" source="76" target="84">
                    <mxGeometry relative="1" as="geometry"/>
                </mxCell>
                <mxCell id="92" style="edgeStyle=elbowEdgeStyle;html=1;" edge="1" parent="1" source="76" target="30">
                    <mxGeometry relative="1" as="geometry">
                        <Array as="points">
                            <mxPoint x="170" y="1600"/>
                            <mxPoint x="130" y="1650"/>
                        </Array>
                    </mxGeometry>
                </mxCell>
                <mxCell id="76" value="" style="rhombus;whiteSpace=wrap;html=1;" vertex="1" parent="1">
                    <mxGeometry x="350" y="1689" width="20" height="40" as="geometry"/>
                </mxCell>
                <mxCell id="81" style="edgeStyle=elbowEdgeStyle;html=1;" edge="1" parent="1" source="79" target="57">
                    <mxGeometry relative="1" as="geometry"/>
                </mxCell>
                <mxCell id="79" value="" style="rhombus;whiteSpace=wrap;html=1;" vertex="1" parent="1">
                    <mxGeometry x="350" y="210" width="20" height="40" as="geometry"/>
                </mxCell>
                <mxCell id="96" style="edgeStyle=elbowEdgeStyle;html=1;" edge="1" parent="1" source="93" target="22">
                    <mxGeometry relative="1" as="geometry">
                        <mxPoint x="590" y="1840" as="targetPoint"/>
                        <Array as="points">
                            <mxPoint x="600" y="1680"/>
                            <mxPoint x="550" y="1910"/>
                        </Array>
                    </mxGeometry>
                </mxCell>
                <mxCell id="99" style="edgeStyle=elbowEdgeStyle;html=1;" edge="1" parent="1" source="83" target="97">
                    <mxGeometry relative="1" as="geometry"/>
                </mxCell>
                <mxCell id="83" value="upload main code" style="rounded=1;whiteSpace=wrap;html=1;" vertex="1" parent="1">
                    <mxGeometry x="280" y="1970" width="160" height="40" as="geometry"/>
                </mxCell>
                <mxCell id="94" style="edgeStyle=elbowEdgeStyle;html=1;" edge="1" parent="1" source="84" target="93">
                    <mxGeometry relative="1" as="geometry"/>
                </mxCell>
                <mxCell id="84" value="robot unit test" style="rounded=1;whiteSpace=wrap;html=1;" vertex="1" parent="1">
                    <mxGeometry x="280" y="1770" width="160" height="40" as="geometry"/>
                </mxCell>
                <mxCell id="86" value="" style="group" vertex="1" connectable="0" parent="1">
                    <mxGeometry x="150" y="648" width="530" height="156" as="geometry"/>
                </mxCell>
                <mxCell id="49" style="edgeStyle=elbowEdgeStyle;html=1;labelPosition=left;verticalLabelPosition=top;align=right;verticalAlign=middle;" parent="86" source="9" target="25" edge="1">
                    <mxGeometry relative="1" as="geometry">
                        <mxPoint x="110" y="-190" as="targetPoint"/>
                        <Array as="points">
                            <mxPoint x="330" y="31"/>
                            <mxPoint/>
                        </Array>
                        <mxPoint x="230" y="130" as="sourcePoint"/>
                    </mxGeometry>
                </mxCell>
                <mxCell id="52" value="[no unitary test]" style="text;html=1;strokeColor=none;fillColor=none;align=center;verticalAlign=middle;whiteSpace=wrap;rounded=0;" vertex="1" parent="86">
                    <mxGeometry x="230" y="126" width="90" height="30" as="geometry"/>
                </mxCell>
                <mxCell id="11" value="Call test_feature_script" style="rounded=1;whiteSpace=wrap;html=1;" parent="86" vertex="1">
                    <mxGeometry x="130" y="32" width="160" height="40" as="geometry"/>
                </mxCell>
                <mxCell id="23" style="edgeStyle=elbowEdgeStyle;html=1;endArrow=open;endFill=0;" parent="86" source="27" target="11" edge="1">
                    <mxGeometry relative="1" as="geometry"/>
                </mxCell>
                <mxCell id="22" value="Check and fix possible erros in feature test" style="rounded=1;whiteSpace=wrap;html=1;" parent="86" vertex="1">
                    <mxGeometry x="370" y="112" width="160" height="40" as="geometry"/>
                </mxCell>
                <mxCell id="27" value="Check and fix possible erros in the feature code" style="rounded=1;whiteSpace=wrap;html=1;" parent="86" vertex="1">
                    <mxGeometry x="370" y="32" width="160" height="40" as="geometry"/>
                </mxCell>
                <mxCell id="28" style="edgeStyle=none;html=1;entryX=0.5;entryY=1;entryDx=0;entryDy=0;" parent="86" source="22" target="27" edge="1">
                    <mxGeometry relative="1" as="geometry"/>
                </mxCell>
                <mxCell id="95" style="edgeStyle=elbowEdgeStyle;html=1;" edge="1" parent="1" source="93" target="83">
                    <mxGeometry relative="1" as="geometry"/>
                </mxCell>
                <mxCell id="93" value="" style="rhombus;whiteSpace=wrap;html=1;" vertex="1" parent="1">
                    <mxGeometry x="350" y="1860" width="20" height="40" as="geometry"/>
                </mxCell>
                <mxCell id="100" style="edgeStyle=elbowEdgeStyle;html=1;" edge="1" parent="1" source="97" target="22">
                    <mxGeometry relative="1" as="geometry">
                        <Array as="points">
                            <mxPoint x="600" y="770"/>
                        </Array>
                    </mxGeometry>
                </mxCell>
                <mxCell id="102" style="edgeStyle=elbowEdgeStyle;html=1;" edge="1" parent="1" source="97" target="101">
                    <mxGeometry relative="1" as="geometry"/>
                </mxCell>
                <mxCell id="97" value="" style="rhombus;whiteSpace=wrap;html=1;" vertex="1" parent="1">
                    <mxGeometry x="350" y="2060" width="20" height="40" as="geometry"/>
                </mxCell>
                <mxCell id="101" value="git commit and push" style="rounded=1;whiteSpace=wrap;html=1;" vertex="1" parent="1">
                    <mxGeometry x="290" y="2140" width="160" height="40" as="geometry"/>
                </mxCell>
                <mxCell id="38" style="edgeStyle=orthogonalEdgeStyle;html=1;" parent="1" source="35" target="22" edge="1">
                    <mxGeometry relative="1" as="geometry"/>
                </mxCell>
                <mxCell id="42" style="edgeStyle=orthogonalEdgeStyle;html=1;" parent="1" source="39" target="22" edge="1">
                    <mxGeometry relative="1" as="geometry"/>
                </mxCell>
                <mxCell id="104" style="edgeStyle=elbowEdgeStyle;html=1;" edge="1" parent="1" source="11" target="9">
                    <mxGeometry relative="1" as="geometry"/>
                </mxCell>
                <mxCell id="109" style="edgeStyle=elbowEdgeStyle;html=1;" edge="1" parent="1" source="105" target="11">
                    <mxGeometry relative="1" as="geometry"/>
                </mxCell>
                <mxCell id="105" value="Write tests to feature" style="rounded=1;whiteSpace=wrap;html=1;" vertex="1" parent="1">
                    <mxGeometry x="280" y="580" width="160" height="40" as="geometry"/>
                </mxCell>
            </root>
        </mxGraphModel>
    </diagram>
</mxfile>